<svg xmlns="http://www.w3.org/2000/svg" xml:space="preserve" width="576.1" height="236.6"><path d="M127.4 236.6c-61.6 0-93.6-13.6-112.7-45.6C3.8 172.6 0 139.6 0 118.3c0-21.2 3.8-54.2 14.6-72.7C33.7 13.6 65.8 0 127.3 0c61.6 0 93.6 13.6 112.7 45.6 10.8 18.4 14.6 51.5 14.6 72.7 0 21.2-3.8 54.2-14.6 72.7-19.1 32-51.1 45.6-112.6 45.6zm30.9-51.4c-7 0-17.1-3.1-21.9-14.3l-30.6-74.1c-6.6-16.7 6.3-32.4 21.2-32.4 7 0 17.1 3.1 21.9 14.3l30.6 74.1c6.6 16.7-6.2 32.4-21.2 32.4zm-61.6 0c-7 0-17.1-3.1-21.9-14.3L44.2 96.8c-6.6-16.7 6.3-32.4 21.2-32.4 7 0 17.1 3.1 21.9 14.3l30.6 74.1c6.7 16.7-6.2 32.4-21.2 32.4zm100-56c-7 0-17.1-3.1-21.9-14.3l-7.5-18.1c-6.6-16.7 6.3-32.4 21.2-32.4 7 0 17 3.1 21.9 14.3l7.5 18.1c6.7 16.7-6.2 32.4-21.2 32.4z" style="clip-rule:evenodd;fill:#0061aa;fill-rule:evenodd"/><path d="m347 42.9-12.1 38c-.5 1.4-1.8 2.4-3.3 2.4-1.4 0-2.7-.9-3.1-2.3l-7.7-27.7L313 81c-.4 1.4-1.6 2.3-3 2.3s-2.8-.9-3.3-2.4l-12.2-38c-.1-.3-.1-.6-.1-.9-.1-1.4.9-2.8 2.3-3.3.3-.1.7-.2 1-.2 1.4 0 2.8.9 3.2 2.4l9 28.1 7.9-28.2c.3-1 1.2-2.3 3-2.3s2.8 1.3 3 2.3l7.9 28.2 9-28.1c.5-1.4 1.8-2.4 3.2-2.4.3 0 .7.1 1 .2 1.4.5 2.4 1.8 2.4 3.2-.2.3-.2.6-.3 1zm41.7 40c-.5.2-.9.3-1.4.3-1.2 0-2.5-.7-3-2l-4.1-9.3H360l-4.1 9.3c-.5 1.2-1.8 2-3.1 2-.5 0-.9-.1-1.3-.3-1.2-.5-1.9-1.8-1.9-3 0-.5.1-1 .3-1.4l17.2-38.1c.5-1.1 1.7-2 3-2s2.5.8 3 2l17.3 38.1c.2.5.3.9.3 1.4-.1 1.3-.8 2.5-2 3zM370 49.4 362.6 66h14.8zm57.8 13.8s.3.5 7.4 15.2c.3.5.3.9.3 1.4 0 1.3-.7 2.6-1.9 3.1-.5.3-1 .3-1.5.3-1.3 0-2.5-.7-3.1-2l-8.2-16.9h-13.6v15.4c0 2-1.6 3.5-3.5 3.5s-3.5-1.6-3.5-3.5V42.4c0-1.9 1.6-3.5 3.5-3.5h17.2c8.2 0 14.8 3.9 14.8 12.7.1 5.5-2.8 9.9-7.9 11.6zm-6-17.7h-14.6v12.9h14.6c3.8 0 6.9-2.4 6.9-6.4s-3-6.5-6.9-6.5zm58.7 37.8c-1.1 0-1.9-.4-2.6-1.2l-23.1-31.2V80c0 1.8-1.5 3.3-3.3 3.3-1.8 0-3.3-1.4-3.3-3.3V41.8c0-1.7 1.3-3.3 3.4-3.3 1 0 2 .5 2.5 1.2 0 0 13 18 23.1 31.1v-29c0-1.8 1.4-3.3 3.3-3.3 1.8 0 3.3 1.5 3.3 3.3V80c0 1.8-1.5 3.3-3.3 3.3zm46-.5h-25.3c-2 0-3.5-1.6-3.5-3.5V42.6c0-2 1.6-3.5 3.5-3.5h24.3c1.8 0 3.3 1.4 3.3 3.2 0 1.8-1.5 3.3-3.3 3.3h-20.9v11.5h11.7c1.8 0 3.3 1.4 3.3 3.3 0 1.8-1.4 3.3-3.3 3.3h-11.7v12.5h21.8c1.8 0 3.3 1.4 3.3 3.3.1 1.8-1.3 3.3-3.2 3.3zm41.7-19.6s.3.5 7.4 15.2c.3.5.3.9.3 1.4 0 1.3-.7 2.6-1.9 3.1-.5.3-1 .3-1.5.3-1.3 0-2.5-.7-3.1-2l-8.2-16.9h-13.6v15.4c0 2-1.6 3.5-3.5 3.5s-3.5-1.6-3.5-3.5V42.4c0-1.9 1.6-3.5 3.5-3.5h17.2c8.2 0 14.8 3.9 14.8 12.7 0 5.5-2.8 9.9-7.9 11.6zm-6-17.7h-14.6v12.9h14.6c3.8 0 6.9-2.4 6.9-6.4s-3-6.5-6.9-6.5zM338.5 145.7c-1.8 0-3.3-1.4-3.3-3.3v-24.3c-7.9 16-12.2 25.8-12.2 25.8-.5 1.2-1.6 1.8-2.8 1.8-1.4 0-2.3-.6-2.9-1.8L305 118.2v24.1c0 1.8-1.5 3.3-3.3 3.3-1.8 0-3.3-1.5-3.3-3.3v-38.2c0-1.8 1.4-3.3 3.3-3.3 1.4 0 2.5.9 3.1 2.1l15.4 32.3 15.3-32.3c.5-1.2 1.6-2 3-2 1.8 0 3.3 1.5 3.3 3.3v38.2c0 1.8-1.5 3.3-3.3 3.3zm33.4.3c-11.1 0-18.2-7.3-18.2-18.5v-23.1c0-2 1.5-3.5 3.5-3.5s3.5 1.6 3.5 3.5v24c0 6.6 4 11.2 11.2 11.2 7.2 0 11.2-4.5 11.2-11.2v-24c0-2 1.6-3.5 3.5-3.5 2 0 3.5 1.6 3.5 3.5v23.1c0 11.2-7.1 18.5-18.2 18.5zm79-.3c-2 0-3.5-1.6-3.5-3.5v-37.7c0-2 1.6-3.5 3.5-3.5 2 0 3.5 1.6 3.5 3.5v37.7c-.1 1.9-1.6 3.5-3.5 3.5zm53.9-8.1c-4 5.1-10.6 8.4-17.3 8.4-12.6 0-22.2-10.4-22.2-22.7 0-12.3 9.6-22.6 22.2-22.6 5.4 0 10.8 1.9 14.7 5.7.7.7 1.1 1.6 1.1 2.4 0 .7-.3 1.5-.8 2.1-.6.7-1.4 1.1-2.3 1.1-.7 0-1.5-.3-2.2-.8-3.1-2.7-6.1-4.1-10.6-4.1-9.2 0-15.1 7.5-15.1 16.1 0 8.7 5.9 16.3 15.1 16.3 6.8 0 10.2-3.5 12.6-6.4.6-.7 1.4-1 2.2-1 .8 0 1.6.3 2.2.9.7.6 1 1.4 1 2.2.2.9-.1 1.8-.6 2.4zm-75.9-28.2c-3.1-1.2-7-2.3-10.6-2.3-4.3 0-10.1.8-10.1 5.2 0 4.9 9 6.8 13.9 8.4 7.1 2.4 13.6 4.5 13.6 12.4 0 9.5-8.9 12.8-17.6 12.8-4.9 0-11.7-1.1-16-3.9-1.2-.8-1.6-1.8-1.6-3 0-2.1 1.5-3.2 3.1-3.2 1 0 2.2.6 2.2.6 4.3 2.1 8.3 2.9 12.3 2.9 4.4 0 10.6-1.1 10.6-6 0-5.2-7.9-5.8-15.9-8.7-5.8-2.1-11.6-4.6-11.6-12.4 0-9 8.8-11.7 17-11.7 4.1 0 9.6 1.2 13.6 2.8 1.3.5 2 1.7 2 2.9 0 1.7-1.1 3.3-3.1 3.3-.6.2-1.3.1-1.8-.1zm-120.6 88.7c-3.9 0-7.5-1.4-9.9-3.3-.4-.3-.6-.6-.6-1 0-.6.4-.9 1-.9.4 0 .7.2.9.4 2 1.4 4.8 2.8 8.5 2.8 4.7 0 7.4-1.9 7.4-4.8 0-3-2.9-4.3-7.5-5.7-7.8-2.4-9.7-4.8-9.7-7.9 0-4.6 4.5-6.7 9.7-6.7 3.1 0 6 .8 8.4 2.5.4.2.6.5.6.8 0 .5-.4 1-1.1 1-.2 0-.4-.1-.6-.2-2.4-1.5-5-2.1-7.4-2.1-4.1 0-7.3 1.4-7.3 4.6 0 2.7 2.2 4 7.4 5.7 6.2 2 9.9 3.4 9.9 7.7 0 4.4-3.7 7.1-9.7 7.1zm25.1-.1c-.7 0-1.2-.5-1.2-1.2v-23.2h-8.5c-.6 0-1.1-.5-1.1-1.1 0-.6.5-1.1 1.1-1.1H343c.6 0 1.1.5 1.1 1.1 0 .6-.5 1.1-1.1 1.1h-8.5v23.2c.1.7-.4 1.2-1.1 1.2zm26.7.1c-7.9 0-13.2-6.2-13.2-13.6 0-7.3 5.3-13.6 13.2-13.6 7.9 0 13.1 6.2 13.1 13.6 0 7.4-5.3 13.6-13.1 13.6zm0-25c-6.8 0-10.8 5.5-10.8 11.5s4.1 11.5 10.8 11.5c6.8 0 10.8-5.5 10.8-11.5-.1-6-4.1-11.5-10.8-11.5zm35.2 12.7 5.1 10.5c.1.2.2.4.2.6 0 .6-.5 1.1-1.1 1.1-.6 0-.9-.2-1.1-.7l-5.5-11.3h-9.7v10.8c0 .7-.5 1.2-1.2 1.2s-1.2-.5-1.2-1.2v-24.1c0-.7.6-1.2 1.2-1.2h11.3c5.2 0 8.1 3.1 8.1 7.3-.2 3.5-2.3 6.3-6.1 7zm-1.7-12.2H383v10.3h10.6c3.3 0 5.2-2.2 5.2-5.1.1-3-1.9-5.2-5.2-5.2zm18.5 21.9h14c.6 0 1.1.5 1.1 1.1 0 .6-.5 1.1-1.1 1.1h-15.2c-.7 0-1.2-.5-1.2-1.2v-23.8c0-.7.5-1.2 1.2-1.2H426c.6 0 1.1.5 1.1 1.1 0 .6-.5 1.1-1.1 1.1h-14v9.5h8.1c.6 0 1.1.5 1.1 1.1 0 .6-.5 1.1-1.1 1.1H412v10.1z"/></svg>